M48
; DRILL file {KiCad (5.1.4)-1} date 25-Nov-19 13:39:37
; FORMAT={-:-/ absolute / inch / decimal}
; #@! TF.CreationDate,2019-11-25T13:39:37-03:00
; #@! TF.GenerationSoftware,Kicad,Pcbnew,(5.1.4)-1
; #@! TF.FileFunction,Plated,1,2,PTH
FMAT,2
INCH
T1C0.0276
T2C0.1575
%
G90
G05
T1
X2.8317Y-2.08
X3.1286Y-2.08
X3.13Y-2.41
X3.13Y-2.64
X3.13Y-4.41
X3.13Y-4.67
X3.73Y-2.7
X3.73Y-2.9
X3.73Y-3.1
X3.93Y-3.1
X4.03Y-2.9
X4.1302Y-2.7
X4.49Y-3.29
X4.49Y-3.67
X4.69Y-2.08
X4.69Y-3.29
X4.69Y-3.67
X5.03Y-2.08
X5.09Y-3.29
X5.09Y-3.67
X5.29Y-3.29
X5.29Y-3.67
X5.29Y-4.05
X5.29Y-4.27
X5.2378Y-5.939
X5.3362Y-5.939
X4.03Y-5.11
X4.43Y-5.11
X5.6Y-1.65
X5.7Y-1.65
X4.82Y-4.48
X4.82Y-4.58
X4.82Y-4.68
X5.2416Y-5.72
X5.34Y-5.72
X4.83Y-1.87
X4.93Y-1.87
X5.03Y-1.87
X4.03Y-4.02
X4.43Y-4.02
X2.67Y-3.57
X2.67Y-3.67
X2.67Y-3.77
X2.67Y-3.87
X2.67Y-3.97
X2.67Y-4.07
X2.67Y-4.17
X2.67Y-4.27
X2.67Y-4.37
X2.67Y-4.47
X2.67Y-4.57
X2.67Y-4.67
X2.67Y-4.77
X2.67Y-4.87
X2.67Y-4.97
X2.67Y-5.07
X2.67Y-5.17
X2.67Y-5.27
X2.67Y-5.37
X2.67Y-5.47
X2.77Y-3.57
X2.77Y-3.67
X2.77Y-3.77
X2.77Y-3.87
X2.77Y-3.97
X2.77Y-4.07
X2.77Y-4.17
X2.77Y-4.27
X2.77Y-4.37
X2.77Y-4.47
X2.77Y-4.57
X2.77Y-4.67
X2.77Y-4.77
X2.77Y-4.87
X2.77Y-4.97
X2.77Y-5.07
X2.77Y-5.17
X2.77Y-5.27
X2.77Y-5.37
X2.77Y-5.47
X5.47Y-3.57
X5.47Y-3.67
X5.47Y-3.77
X5.47Y-3.87
X5.47Y-3.97
X5.47Y-4.07
X5.47Y-4.17
X5.47Y-4.27
X5.47Y-4.37
X5.47Y-4.47
X5.47Y-4.57
X5.47Y-4.67
X5.47Y-4.77
X5.47Y-4.87
X5.47Y-4.97
X5.47Y-5.07
X5.47Y-5.17
X5.47Y-5.27
X5.47Y-5.37
X5.47Y-5.47
X5.57Y-3.57
X5.57Y-3.67
X5.57Y-3.77
X5.57Y-3.87
X5.57Y-3.97
X5.57Y-4.07
X5.57Y-4.17
X5.57Y-4.27
X5.57Y-4.37
X5.57Y-4.47
X5.57Y-4.57
X5.57Y-4.67
X5.57Y-4.77
X5.57Y-4.87
X5.57Y-4.97
X5.57Y-5.07
X5.57Y-5.17
X5.57Y-5.27
X5.57Y-5.37
X5.57Y-5.47
X2.73Y-1.65
X2.73Y-1.75
X2.8302Y-2.2498
X2.9302Y-2.2498
X3.0302Y-2.2498
X3.1302Y-2.2498
X3.2302Y-2.2498
X3.3302Y-2.2498
X3.4302Y-2.2498
X3.5302Y-2.2498
X3.6302Y-2.2498
X3.7302Y-2.2498
X3.8302Y-2.2498
X3.9302Y-2.2498
X4.0302Y-2.2498
X4.1302Y-2.2498
X4.2302Y-2.2498
X4.3302Y-2.2498
X4.03Y-4.58
X4.43Y-4.58
X5.61Y-5.84
X5.61Y-5.94
X5.6Y-1.95
X5.7Y-1.95
X4.82Y-3.77
X4.82Y-4.17
T2
X2.595Y-1.265
X2.595Y-6.28
X5.6Y-1.26
X5.6Y-6.28
T0
M30
